{
  "accessors": [
    {
      "bufferView": 2,
      "componentType": 5126,
      "count": 4169,
      "max": [
        0.8360080122947693,
        0.18148499727249146,
        0.45926401019096375
      ],
      "min": [
        -1.7469379901885986,
        -1.4823529720306396,
        -0.09446699917316437
      ],
      "type": "VEC3"
    },
    {
      "bufferView": 2,
      "byteOffset": 50028,
      "componentType": 5126,
      "count": 4169,
      "max": [
        1.0,
        0.9997959733009338,
        1.0
      ],
      "min": [
        -1.0,
        -0.9997959733009338,
        -0.9997959733009338
      ],
      "type": "VEC3"
    },
    {
      "bufferView": 1,
      "componentType": 5126,
      "count": 4169,
      "max": [
        2.0677781105041504,
        0.06282799690961838
      ],
      "min": [
        0.0,
        -0.1265140026807785
      ],
      "type": "VEC2"
    },
    {
      "bufferView": 0,
      "componentType": 5125,
      "count": 12480,
      "type": "SCALAR"
    },
    {
      "bufferView": 2,
      "byteOffset": 100056,
      "componentType": 5126,
      "count": 1732,
      "max": [
        0.8994590044021606,
        -0.032262999564409256,
        1.8200620412826538
      ],
      "min": [
        -1.3625949621200562,
        -1.6142510175704956,
        0.4518760144710541
      ],
      "type": "VEC3"
    },
    {
      "bufferView": 2,
      "byteOffset": 120840,
      "componentType": 5126,
      "count": 1732,
      "max": [
        0.965481698513031,
        0.9958537817001343,
        1.0
      ],
      "min": [
        -0.9653750061988831,
        -0.9949512481689453,
        -1.0
      ],
      "type": "VEC3"
    },
    {
      "bufferView": 1,
      "byteOffset": 33352,
      "componentType": 5126,
      "count": 1732,
      "max": [
        1.0,
        0.0
      ],
      "min": [
        0.0,
        0.0
      ],
      "type": "VEC2"
    },
    {
      "bufferView": 0,
      "byteOffset": 49920,
      "componentType": 5125,
      "count": 3990,
      "type": "SCALAR"
    }
  ],
  "asset": {
    "extras": {
      "author": "Prywid (https://sketchfab.com/fyou24)",
      "license": "CC-BY-4.0 (http://creativecommons.org/licenses/by/4.0/)",
      "source": "https://sketchfab.com/3d-models/contact-lenses-case-container-for-lenses-1abe94364c5945cf9c9913852a55595b",
      "title": "contact lenses case (container for lenses)"
    },
    "generator": "Sketchfab-16.33.0",
    "version": "2.0"
  },
  "bufferViews": [
    {
      "buffer": 0,
      "byteLength": 65880,
      "name": "floatBufferViews",
      "target": 34963
    },
    {
      "buffer": 0,
      "byteLength": 47208,
      "byteOffset": 65880,
      "byteStride": 8,
      "name": "floatBufferViews",
      "target": 34962
    },
    {
      "buffer": 0,
      "byteLength": 141624,
      "byteOffset": 113088,
      "byteStride": 12,
      "name": "floatBufferViews",
      "target": 34962
    }
  ],
  "buffers": [
    {
      "byteLength": 254712,
      "uri": "scene.bin"
    }
  ],
  "extensionsRequired": [
    "KHR_materials_pbrSpecularGlossiness"
  ],
  "extensionsUsed": [
    "KHR_materials_pbrSpecularGlossiness"
  ],
  "materials": [
    {
      "doubleSided": true,
      "extensions": {
        "KHR_materials_pbrSpecularGlossiness": {
          "diffuseFactor": [
            1.0,
            1.0,
            1.0,
            1.0
          ],
          "glossinessFactor": 0.4,
          "specularFactor": [
            0.0,
            0.0,
            0.0
          ]
        }
      },
      "name": "Material.001"
    },
    {
      "doubleSided": true,
      "extensions": {
        "KHR_materials_pbrSpecularGlossiness": {
          "diffuseFactor": [
            0.27866344396976334,
            0.39360066623681794,
            0.8648245820318268,
            1.0
          ],
          "glossinessFactor": 0.4773317404395899,
          "specularFactor": [
            0.0,
            0.0,
            0.0
          ]
        }
      },
      "name": "Material.002"
    }
  ],
  "meshes": [
    {
      "name": "Object_0",
      "primitives": [
        {
          "attributes": {
            "NORMAL": 1,
            "POSITION": 0,
            "TEXCOORD_0": 2
          },
          "indices": 3,
          "material": 0,
          "mode": 4
        }
      ]
    },
    {
      "name": "Object_1",
      "primitives": [
        {
          "attributes": {
            "NORMAL": 5,
            "POSITION": 4,
            "TEXCOORD_0": 6
          },
          "indices": 7,
          "material": 1,
          "mode": 4
        }
      ]
    }
  ],
  "nodes": [
    {
      "children": [
        1
      ],
      "matrix": [
        0.03751339763402939,
        0.0,
        0.0,
        0.0,
        0.0,
        1.436226189697282e-17,
        -0.03751339763402939,
        0.0,
        0.0,
        0.03751339763402939,
        1.436226189697282e-17,
        0.0,
        0.0,
        0.0,
        0.0,
        1.0
      ],
      "name": "Sketchfab_model"
    },
    {
      "children": [
        2,
        3
      ],
      "name": "58f45bc182864b1681e80dd51a957494.obj.cleaner.materialmerger.gles"
    },
    {
      "mesh": 0,
      "name": "Object_2"
    },
    {
      "mesh": 1,
      "name": "Object_3"
    }
  ],
  "scene": 0,
  "scenes": [
    {
      "name": "Sketchfab_Scene",
      "nodes": [
        0
      ]
    }
  ]
}
