{
    "asset": {
        "version": "2.0",
        "generator": "Open Asset Import Library (assimp v5.4.0)"
    },
    "extensionsUsed": [
        "KHR_materials_volume",
        "FB_ngon_encoding"
    ],
    "accessors": [
        {
            "bufferView": 0,
            "byteOffset": 0,
            "componentType": 5126,
            "count": 376,
            "type": "VEC3",
            "max": [
                30.0,
                -28.450000762939453,
                3.0
            ],
            "min": [
                -20.0,
                -70.0,
                0.0
            ]
        },
        {
            "bufferView": 1,
            "byteOffset": 0,
            "componentType": 5126,
            "count": 376,
            "type": "VEC3",
            "max": [
                1.0,
                1.0,
                1.0
            ],
            "min": [
                -1.0,
                -1.0,
                -1.0
            ]
        },
        {
            "bufferView": 2,
            "byteOffset": 0,
            "componentType": 5126,
            "count": 376,
            "type": "VEC4",
            "max": [
                0.5843137502670288,
                0.3333333432674408,
                0.6392157077789307,
                0.0
            ],
            "min": [
                0.16862745583057404,
                0.10196078568696976,
                0.12941177189350128,
                0.0
            ]
        },
        {
            "bufferView": 3,
            "byteOffset": 0,
            "componentType": 5125,
            "count": 684,
            "type": "SCALAR",
            "max": [
                375
            ],
            "min": [
                0
            ]
        }
    ],
    "buffers": [
        {
            "byteLength": 17776,
            "uri": "DeclineG_0.bin"
        }
    ],
    "bufferViews": [
        {
            "buffer": 0,
            "byteOffset": 0,
            "byteLength": 4512,
            "target": 34962
        },
        {
            "buffer": 0,
            "byteOffset": 4512,
            "byteLength": 4512,
            "target": 34962
        },
        {
            "buffer": 0,
            "byteOffset": 9024,
            "byteLength": 6016,
            "target": 34962
        },
        {
            "buffer": 0,
            "byteOffset": 15040,
            "byteLength": 2736,
            "target": 34963
        }
    ],
    "materials": [
        {
            "name": "lambert2SG.001",
            "pbrMetallicRoughness": {
                "metallicFactor": 0.5,
                "roughnessFactor": 0.5
            }
        }
    ],
    "meshes": [
        {
            "name": "meshes[0]",
            "primitives": [
                {
                    "mode": 4,
                    "material": 0,
                    "indices": 3,
                    "attributes": {
                        "POSITION": 0,
                        "NORMAL": 1,
                        "COLOR_0": 2
                    }
                }
            ]
        }
    ],
    "nodes": [
        {
            "name": "DeclineG",
            "children": [
                1
            ]
        },
        {
            "name": "nodes[1]",
            "matrix": [
                1.0,
                0.0,
                0.0,
                0.0,
                0.0,
                2.220446049250313e-16,
                -1.0,
                0.0,
                0.0,
                1.0,
                2.220446049250313e-16,
                0.0,
                0.0,
                0.0,
                0.0,
                1.0
            ],
            "children": [
                2
            ]
        },
        {
            "name": "Mesh_Mesh_head_geo001_lambert2SG001",
            "mesh": 0,
            "extras": {
                "name": "Mesh_Mesh_head_geo.001_lambert2SG.001"
            }
        }
    ],
    "scenes": [
        {
            "nodes": [
                0
            ]
        }
    ],
    "scene": 0
}