{
    "asset": {
        "version": "2.0",
        "generator": "Open Asset Import Library (assimp v5.2.cf7d3637)"
    },
    "extensionsUsed": [
        "KHR_materials_volume",
        "FB_ngon_encoding"
    ],
    "accessors": [
        {
            "bufferView": 0,
            "byteOffset": 0,
            "componentType": 5126,
            "count": 324,
            "type": "VEC3",
            "max": [
                10.536298751831055,
                9.842519760131836,
                2.3228347301483156
            ],
            "min": [
                0.004805917851626873,
                0.0,
                0.0
            ]
        },
        {
            "bufferView": 1,
            "byteOffset": 0,
            "componentType": 5126,
            "count": 324,
            "type": "VEC3",
            "max": [
                1.0,
                1.0,
                1.0
            ],
            "min": [
                -1.0,
                -1.0,
                -1.0
            ]
        },
        {
            "bufferView": 2,
            "byteOffset": 0,
            "componentType": 5125,
            "count": 324,
            "type": "SCALAR",
            "max": [
                323
            ],
            "min": [
                0
            ]
        },
        {
            "bufferView": 3,
            "byteOffset": 0,
            "componentType": 5126,
            "count": 240,
            "type": "VEC3",
            "max": [
                10.536298751831055,
                9.842519760131836,
                2.3228347301483156
            ],
            "min": [
                0.004805917851626873,
                0.0,
                0.0
            ]
        },
        {
            "bufferView": 4,
            "byteOffset": 0,
            "componentType": 5126,
            "count": 240,
            "type": "VEC3",
            "max": [
                1.0,
                1.0,
                0.0
            ],
            "min": [
                -1.0,
                -1.0,
                -1.0
            ]
        },
        {
            "bufferView": 5,
            "byteOffset": 0,
            "componentType": 5125,
            "count": 240,
            "type": "SCALAR",
            "max": [
                239
            ],
            "min": [
                0
            ]
        }
    ],
    "buffers": [
        {
            "byteLength": 15792,
            "uri": "result.bin"
        }
    ],
    "bufferViews": [
        {
            "buffer": 0,
            "byteOffset": 0,
            "byteLength": 3888,
            "target": 34962
        },
        {
            "buffer": 0,
            "byteOffset": 3888,
            "byteLength": 3888,
            "target": 34962
        },
        {
            "buffer": 0,
            "byteOffset": 7776,
            "byteLength": 1296,
            "target": 34963
        },
        {
            "buffer": 0,
            "byteOffset": 9072,
            "byteLength": 2880,
            "target": 34962
        },
        {
            "buffer": 0,
            "byteOffset": 11952,
            "byteLength": 2880,
            "target": 34962
        },
        {
            "buffer": 0,
            "byteOffset": 14832,
            "byteLength": 960,
            "target": 34963
        }
    ],
    "materials": [
        {
            "name": "Color_A06",
            "pbrMetallicRoughness": {
                "baseColorFactor": [
                    0.800000011920929,
                    0.0,
                    0.0,
                    1.0
                ]
            },
            "doubleSided": true
        },
        {
            "name": "material"
        }
    ],
    "meshes": [
        {
            "name": "meshes[0]-0",
            "primitives": [
                {
                    "mode": 4,
                    "material": 0,
                    "indices": 2,
                    "attributes": {
                        "POSITION": 0,
                        "NORMAL": 1
                    }
                },
                {
                    "mode": 4,
                    "material": 0,
                    "indices": 5,
                    "attributes": {
                        "POSITION": 3,
                        "NORMAL": 4
                    }
                }
            ]
        }
    ],
    "nodes": [
        {
            "name": "Root Node",
            "matrix": [
                0.02539999969303608,
                0.0,
                0.0,
                0.0,
                0.0,
                0.0,
                -0.02539999969303608,
                0.0,
                0.0,
                0.02539999969303608,
                0.0,
                0.0,
                0.0,
                0.0,
                0.0,
                1.0
            ],
            "children": [
                1
            ]
        },
        {
            "name": "X",
            "matrix": [
                1.0,
                0.0,
                0.0,
                0.0,
                0.0,
                -3.7884300731205747e-14,
                1.0,
                0.0,
                0.0,
                -1.0,
                -3.7884300731205747e-14,
                0.0,
                48.11098861694336,
                19.8996524810791,
                1.2007874250411988,
                1.0
            ],
            "children": [
                2
            ]
        },
        {
            "name": "nodes[0]",
            "mesh": 0
        }
    ],
    "scenes": [
        {
            "nodes": [
                0
            ]
        }
    ],
    "scene": 0
}