{
  "accessors": [
    {
      "bufferView": 2,
      "componentType": 5126,
      "count": 150,
      "max": [
        1.340466022491455,
        0.2551784813404083,
        -0.05677565187215805
      ],
      "min": [
        -1.340466022491455,
        -0.6265935897827148,
        -0.05677575618028641
      ],
      "type": "VEC3"
    },
    {
      "bufferView": 2,
      "byteOffset": 1800,
      "componentType": 5126,
      "count": 150,
      "max": [
        2.3519721992215636e-07,
        3.018932943632535e-07,
        -1.0
      ],
      "min": [
        -1.9915987081731146e-07,
        -3.181755658943075e-08,
        -1.0
      ],
      "type": "VEC3"
    },
    {
      "bufferView": 1,
      "componentType": 5126,
      "count": 150,
      "max": [
        0.0,
        0.0
      ],
      "min": [
        0.0,
        0.0
      ],
      "type": "VEC2"
    },
    {
      "bufferView": 0,
      "componentType": 5125,
      "count": 444,
      "type": "SCALAR"
    },
    {
      "bufferView": 2,
      "byteOffset": 3600,
      "componentType": 5126,
      "count": 11998,
      "max": [
        1.5840803384780884,
        0.37992769479751587,
        0.08848341554403305
      ],
      "min": [
        -1.5840802192687988,
        -0.7027896642684937,
        -0.18974782526493073
      ],
      "type": "VEC3"
    },
    {
      "bufferView": 2,
      "byteOffset": 147576,
      "componentType": 5126,
      "count": 11998,
      "max": [
        0.9999790191650391,
        0.9998674392700195,
        1.0
      ],
      "min": [
        -0.9999790191650391,
        -0.9999892711639404,
        -1.0
      ],
      "type": "VEC3"
    },
    {
      "bufferView": 1,
      "byteOffset": 1200,
      "componentType": 5126,
      "count": 11998,
      "max": [
        0.0,
        0.0
      ],
      "min": [
        0.0,
        0.0
      ],
      "type": "VEC2"
    },
    {
      "bufferView": 0,
      "byteOffset": 1776,
      "componentType": 5125,
      "count": 18000,
      "type": "SCALAR"
    },
    {
      "bufferView": 2,
      "byteOffset": 291552,
      "componentType": 5126,
      "count": 216,
      "max": [
        -2.1195085048675537,
        0.30633777379989624,
        0.7695783972740173
      ],
      "min": [
        -5.6831583976745605,
        -0.7561318874359131,
        -2.3502395153045654
      ],
      "type": "VEC3"
    },
    {
      "bufferView": 2,
      "byteOffset": 294144,
      "componentType": 5126,
      "count": 216,
      "max": [
        0.9999783039093018,
        0.9994171857833862,
        0.7067509293556213
      ],
      "min": [
        -0.9635170102119446,
        -0.7309809327125549,
        -0.7067509293556213
      ],
      "type": "VEC3"
    },
    {
      "bufferView": 1,
      "byteOffset": 97184,
      "componentType": 5126,
      "count": 216,
      "max": [
        0.0,
        0.0
      ],
      "min": [
        0.0,
        0.0
      ],
      "type": "VEC2"
    },
    {
      "bufferView": 0,
      "byteOffset": 73776,
      "componentType": 5125,
      "count": 3570,
      "type": "SCALAR"
    }
  ],
  "asset": {
    "extras": {
      "author": "asgor09 (https://sketchfab.com/asgor09)",
      "license": "SKETCHFAB Standard (https://sketchfab.com/licenses)",
      "source": "https://sketchfab.com/3d-models/glass-eye-b9ae12ccbd81468b914632436f8f4721",
      "title": "GLASS EYE"
    },
    "generator": "Sketchfab-16.58.0",
    "version": "2.0"
  },
  "bufferViews": [
    {
      "buffer": 0,
      "byteLength": 88056,
      "name": "floatBufferViews",
      "target": 34963
    },
    {
      "buffer": 0,
      "byteLength": 98912,
      "byteOffset": 88056,
      "byteStride": 8,
      "name": "floatBufferViews",
      "target": 34962
    },
    {
      "buffer": 0,
      "byteLength": 296736,
      "byteOffset": 186968,
      "byteStride": 12,
      "name": "floatBufferViews",
      "target": 34962
    }
  ],
  "buffers": [
    {
      "byteLength": 483704,
      "uri": "scene.bin"
    }
  ],
  "materials": [
    {
      "doubleSided": true,
      "name": "Material.002",
      "pbrMetallicRoughness": {
        "baseColorFactor": [
          0.8,
          0.8,
          0.8,
          1.0
        ],
        "metallicFactor": 0.0,
        "roughnessFactor": 0.8040408205773457
      }
    },
    {
      "doubleSided": true,
      "name": "Material.009",
      "pbrMetallicRoughness": {
        "baseColorFactor": [
          0.00787875,
          0.00787875,
          0.00787875,
          1.0
        ],
        "metallicFactor": 0.0,
        "roughnessFactor": 0.9975085204884948
      }
    }
  ],
  "meshes": [
    {
      "name": "GLASS_Material.002_0",
      "primitives": [
        {
          "attributes": {
            "NORMAL": 1,
            "POSITION": 0,
            "TEXCOORD_0": 2
          },
          "indices": 3,
          "material": 0,
          "mode": 4
        }
      ]
    },
    {
      "name": "Plane_Material.009_0",
      "primitives": [
        {
          "attributes": {
            "NORMAL": 5,
            "POSITION": 4,
            "TEXCOORD_0": 6
          },
          "indices": 7,
          "material": 1,
          "mode": 4
        }
      ]
    },
    {
      "name": "Plane.002_Material.009_0",
      "primitives": [
        {
          "attributes": {
            "NORMAL": 9,
            "POSITION": 8,
            "TEXCOORD_0": 10
          },
          "indices": 11,
          "material": 1,
          "mode": 4
        }
      ]
    }
  ],
  "nodes": [
    {
      "children": [
        1
      ],
      "matrix": [
        1.0,
        0.0,
        0.0,
        0.0,
        0.0,
        2.220446049250313e-16,
        -1.0,
        0.0,
        0.0,
        1.0,
        2.220446049250313e-16,
        0.0,
        0.0,
        0.0,
        0.0,
        1.0
      ],
      "name": "Sketchfab_model"
    },
    {
      "children": [
        2
      ],
      "matrix": [
        0.009999999776482582,
        0.0,
        0.0,
        0.0,
        0.0,
        0.0,
        0.009999999776482582,
        0.0,
        0.0,
        -0.009999999776482582,
        0.0,
        0.0,
        0.0,
        0.0,
        0.0,
        1.0
      ],
      "name": "000a9b6c568d47e1a47f67a0966281cd.fbx"
    },
    {
      "children": [
        3,
        5,
        7
      ],
      "name": "RootNode"
    },
    {
      "children": [
        4
      ],
      "matrix": [
        100.0,
        0.0,
        0.0,
        0.0,
        0.0,
        99.9999999999999,
        4.371138828673792e-06,
        0.0,
        0.0,
        -4.371138828673792e-06,
        99.9999999999999,
        0.0,
        -1.5461490154266357,
        17.0556697845459,
        -37.326812744140625,
        1.0
      ],
      "name": "GLASS"
    },
    {
      "mesh": 0,
      "name": "GLASS_Material.002_0"
    },
    {
      "children": [
        6
      ],
      "matrix": [
        100.0,
        0.0,
        0.0,
        0.0,
        0.0,
        99.9999999999999,
        4.371138828673792e-06,
        0.0,
        0.0,
        -4.371138828673792e-06,
        99.9999999999999,
        0.0,
        -1.5461490154266357,
        17.0556697845459,
        -37.326812744140625,
        1.0
      ],
      "name": "Plane"
    },
    {
      "mesh": 1,
      "name": "Plane_Material.009_0"
    },
    {
      "children": [
        8
      ],
      "matrix": [
        7.549789948768648e-06,
        0.0,
        -99.99999999999972,
        0.0,
        4.371139539216514e-06,
        99.9999999999999,
        3.3001185376880853e-13,
        0.0,
        99.99999999999962,
        -4.371139539216526e-06,
        7.549789948768648e-06,
        0.0,
        76.66251373291016,
        17.0556697845459,
        -607.0742797851563,
        1.0
      ],
      "name": "Plane.002"
    },
    {
      "mesh": 2,
      "name": "Plane.002_Material.009_0"
    }
  ],
  "scene": 0,
  "scenes": [
    {
      "name": "Sketchfab_Scene",
      "nodes": [
        0
      ]
    }
  ]
}
