{
  "accessors": [
    {
      "bufferView": 2,
      "componentType": 5126,
      "count": 65532,
      "max": [
        4.9083027839660645,
        5.6196370124816895,
        7.250006198883057
      ],
      "min": [
        -4.955100059509277,
        -2.174053907394409,
        -0.6346830129623413
      ],
      "type": "VEC3"
    },
    {
      "bufferView": 2,
      "byteOffset": 786384,
      "componentType": 5126,
      "count": 65532,
      "max": [
        0.9999908804893494,
        0.9999978542327881,
        0.9999993443489075
      ],
      "min": [
        -0.9999744892120361,
        -0.9999996423721313,
        -0.9999991059303284
      ],
      "type": "VEC3"
    },
    {
      "bufferView": 1,
      "componentType": 5126,
      "count": 65532,
      "max": [
        0.9997209906578064,
        0.7575680017471313
      ],
      "min": [
        0.00024399999529123306,
        0.0071000000461936
      ],
      "type": "VEC2"
    },
    {
      "bufferView": 0,
      "componentType": 5125,
      "count": 270831,
      "type": "SCALAR"
    },
    {
      "bufferView": 2,
      "byteOffset": 1572768,
      "componentType": 5126,
      "count": 65532,
      "max": [
        13.721842765808105,
        6.522974014282227,
        14.654582977294922
      ],
      "min": [
        -4.880197048187256,
        -2.5654170513153076,
        -0.825531005859375
      ],
      "type": "VEC3"
    },
    {
      "bufferView": 2,
      "byteOffset": 2359152,
      "componentType": 5126,
      "count": 65532,
      "max": [
        0.9999992251396179,
        0.9999988675117493,
        0.9999728798866272
      ],
      "min": [
        -0.9999416470527649,
        -0.9999998807907104,
        -0.9999946355819702
      ],
      "type": "VEC3"
    },
    {
      "bufferView": 1,
      "byteOffset": 524256,
      "componentType": 5126,
      "count": 65532,
      "max": [
        0.9997310042381287,
        0.7207520008087158
      ],
      "min": [
        0.00024399999529123306,
        0.007127999793738127
      ],
      "type": "VEC2"
    },
    {
      "bufferView": 0,
      "byteOffset": 1083324,
      "componentType": 5125,
      "count": 247551,
      "type": "SCALAR"
    },
    {
      "bufferView": 2,
      "byteOffset": 3145536,
      "componentType": 5126,
      "count": 65532,
      "max": [
        13.746927261352539,
        5.622616767883301,
        7.511373996734619
      ],
      "min": [
        4.469264984130859,
        -2.1429460048675537,
        -0.7737709879875183
      ],
      "type": "VEC3"
    },
    {
      "bufferView": 2,
      "byteOffset": 3931920,
      "componentType": 5126,
      "count": 65532,
      "max": [
        0.999999463558197,
        1.0,
        0.9998228549957275
      ],
      "min": [
        -0.9999836683273315,
        -0.9999988675117493,
        -0.999984622001648
      ],
      "type": "VEC3"
    },
    {
      "bufferView": 1,
      "byteOffset": 1048512,
      "componentType": 5126,
      "count": 65532,
      "max": [
        0.999638020992279,
        0.6364740133285522
      ],
      "min": [
        0.00024399999529123306,
        0.0051369997672736645
      ],
      "type": "VEC2"
    },
    {
      "bufferView": 0,
      "byteOffset": 2073528,
      "componentType": 5125,
      "count": 276126,
      "type": "SCALAR"
    },
    {
      "bufferView": 2,
      "byteOffset": 4718304,
      "componentType": 5126,
      "count": 65532,
      "max": [
        14.09727954864502,
        5.872367858886719,
        15.324051856994629
      ],
      "min": [
        4.605535984039307,
        -2.1621859073638916,
        -0.7482929825782776
      ],
      "type": "VEC3"
    },
    {
      "bufferView": 2,
      "byteOffset": 5504688,
      "componentType": 5126,
      "count": 65532,
      "max": [
        0.999999463558197,
        1.0,
        0.999978244304657
      ],
      "min": [
        -0.9999763369560242,
        -1.0,
        -0.9999996423721313
      ],
      "type": "VEC3"
    },
    {
      "bufferView": 1,
      "byteOffset": 1572768,
      "componentType": 5126,
      "count": 65532,
      "max": [
        0.9997220039367676,
        0.6318519711494446
      ],
      "min": [
        0.00024399999529123306,
        0.004182000178843737
      ],
      "type": "VEC2"
    },
    {
      "bufferView": 0,
      "byteOffset": 3178032,
      "componentType": 5125,
      "count": 255663,
      "type": "SCALAR"
    },
    {
      "bufferView": 2,
      "byteOffset": 6291072,
      "componentType": 5126,
      "count": 65533,
      "max": [
        14.721872329711914,
        5.871214866638184,
        15.301589012145996
      ],
      "min": [
        4.633378028869629,
        -2.1360108852386475,
        7.092092990875244
      ],
      "type": "VEC3"
    },
    {
      "bufferView": 2,
      "byteOffset": 7077468,
      "componentType": 5126,
      "count": 65533,
      "max": [
        0.9999986290931702,
        0.9999998807907104,
        1.0
      ],
      "min": [
        -0.9999733567237854,
        -0.9999996423721313,
        -0.9999697804450989
      ],
      "type": "VEC3"
    },
    {
      "bufferView": 1,
      "byteOffset": 2097024,
      "componentType": 5126,
      "count": 65533,
      "max": [
        0.9997450113296509,
        0.5319820046424866
      ],
      "min": [
        0.00024399999529123306,
        0.004149999935179949
      ],
      "type": "VEC2"
    },
    {
      "bufferView": 0,
      "byteOffset": 4200684,
      "componentType": 5125,
      "count": 292635,
      "type": "SCALAR"
    },
    {
      "bufferView": 2,
      "byteOffset": 7863864,
      "componentType": 5126,
      "count": 65532,
      "max": [
        14.721872329711914,
        6.534675121307373,
        15.266029357910156
      ],
      "min": [
        -4.8979268074035645,
        -2.1518290042877197,
        6.381670951843262
      ],
      "type": "VEC3"
    },
    {
      "bufferView": 2,
      "byteOffset": 8650248,
      "componentType": 5126,
      "count": 65532,
      "max": [
        0.9999982118606567,
        1.0,
        0.9999954700469971
      ],
      "min": [
        -0.9999763369560242,
        -0.9999998807907104,
        -0.9999108910560608
      ],
      "type": "VEC3"
    },
    {
      "bufferView": 1,
      "byteOffset": 2621288,
      "componentType": 5126,
      "count": 65532,
      "max": [
        0.9997419714927673,
        0.520891010761261
      ],
      "min": [
        0.00024399999529123306,
        0.0023189999628812075
      ],
      "type": "VEC2"
    },
    {
      "bufferView": 0,
      "byteOffset": 5371224,
      "componentType": 5125,
      "count": 260805,
      "type": "SCALAR"
    },
    {
      "bufferView": 2,
      "byteOffset": 9436632,
      "componentType": 5126,
      "count": 65532,
      "max": [
        4.781682968139648,
        5.620065212249756,
        14.529681205749512
      ],
      "min": [
        -9.914935111999512,
        -2.793484926223755,
        -3.7745890617370605
      ],
      "type": "VEC3"
    },
    {
      "bufferView": 2,
      "byteOffset": 10223016,
      "componentType": 5126,
      "count": 65532,
      "max": [
        0.999895453453064,
        0.9999998807907104,
        1.0
      ],
      "min": [
        -1.0,
        -0.9999993443489075,
        -0.9999995231628418
      ],
      "type": "VEC3"
    },
    {
      "bufferView": 1,
      "byteOffset": 3145544,
      "componentType": 5126,
      "count": 65532,
      "max": [
        0.9997329711914063,
        0.3990919888019562
      ],
      "min": [
        0.00024399999529123306,
        0.0002519999979995191
      ],
      "type": "VEC2"
    },
    {
      "bufferView": 0,
      "byteOffset": 6414444,
      "componentType": 5125,
      "count": 298008,
      "type": "SCALAR"
    },
    {
      "bufferView": 2,
      "byteOffset": 11009400,
      "componentType": 5126,
      "count": 65532,
      "max": [
        4.749516010284424,
        5.423426151275635,
        15.897700309753418
      ],
      "min": [
        -10.493876457214355,
        -2.8047640323638916,
        -0.34616899490356445
      ],
      "type": "VEC3"
    },
    {
      "bufferView": 2,
      "byteOffset": 11795784,
      "componentType": 5126,
      "count": 65532,
      "max": [
        0.9998964667320251,
        0.9999992251396179,
        1.0
      ],
      "min": [
        -1.0,
        -0.9999993443489075,
        -0.9999213814735413
      ],
      "type": "VEC3"
    },
    {
      "bufferView": 1,
      "byteOffset": 3669800,
      "componentType": 5126,
      "count": 65532,
      "max": [
        0.9996950030326843,
        0.28317999839782715
      ],
      "min": [
        0.00024399999529123306,
        0.00025099999038502574
      ],
      "type": "VEC2"
    },
    {
      "bufferView": 0,
      "byteOffset": 7606476,
      "componentType": 5125,
      "count": 291669,
      "type": "SCALAR"
    },
    {
      "bufferView": 2,
      "byteOffset": 12582168,
      "componentType": 5126,
      "count": 65532,
      "max": [
        6.560606002807617,
        5.426217079162598,
        16.01718521118164
      ],
      "min": [
        -9.520564079284668,
        -2.81371808052063,
        -3.7298009395599365
      ],
      "type": "VEC3"
    },
    {
      "bufferView": 2,
      "byteOffset": 13368552,
      "componentType": 5126,
      "count": 65532,
      "max": [
        0.9999996423721313,
        0.9999966621398926,
        0.9999998807907104
      ],
      "min": [
        -0.999999463558197,
        -0.9999121427536011,
        -0.999999463558197
      ],
      "type": "VEC3"
    },
    {
      "bufferView": 1,
      "byteOffset": 4194056,
      "componentType": 5126,
      "count": 65532,
      "max": [
        0.9995899796485901,
        0.2735539972782135
      ],
      "min": [
        0.00024399999529123306,
        0.0002460000105202198
      ],
      "type": "VEC2"
    },
    {
      "bufferView": 0,
      "byteOffset": 8773152,
      "componentType": 5125,
      "count": 262203,
      "type": "SCALAR"
    },
    {
      "bufferView": 2,
      "byteOffset": 14154936,
      "componentType": 5126,
      "count": 65533,
      "max": [
        4.777666091918945,
        5.423591136932373,
        -0.47137799859046936
      ],
      "min": [
        -8.514095306396484,
        -1.5770670175552368,
        -4.816646099090576
      ],
      "type": "VEC3"
    },
    {
      "bufferView": 2,
      "byteOffset": 14941332,
      "componentType": 5126,
      "count": 65533,
      "max": [
        0.999996542930603,
        0.999999463558197,
        0.9999933838844299
      ],
      "min": [
        -1.0,
        -0.9999974966049194,
        -0.9999995231628418
      ],
      "type": "VEC3"
    },
    {
      "bufferView": 1,
      "byteOffset": 4718312,
      "componentType": 5126,
      "count": 65533,
      "max": [
        0.9997439980506897,
        0.315185010433197
      ],
      "min": [
        0.00024399999529123306,
        0.00026699999580159783
      ],
      "type": "VEC2"
    },
    {
      "bufferView": 0,
      "byteOffset": 9821964,
      "componentType": 5125,
      "count": 248736,
      "type": "SCALAR"
    },
    {
      "bufferView": 2,
      "byteOffset": 15727728,
      "componentType": 5126,
      "count": 65534,
      "max": [
        4.778388977050781,
        6.518226146697998,
        15.072823524475098
      ],
      "min": [
        -9.078399658203125,
        -2.150679111480713,
        -4.8103861808776855
      ],
      "type": "VEC3"
    },
    {
      "bufferView": 2,
      "byteOffset": 16514136,
      "componentType": 5126,
      "count": 65534,
      "max": [
        0.9999946355819702,
        1.0,
        0.9999989867210388
      ],
      "min": [
        -0.9999393820762634,
        -0.9999998807907104,
        -0.9999811053276062
      ],
      "type": "VEC3"
    },
    {
      "bufferView": 1,
      "byteOffset": 5242576,
      "componentType": 5126,
      "count": 65534,
      "max": [
        0.9997289776802063,
        0.40698200464248657
      ],
      "min": [
        0.00024399999529123306,
        0.00026000000070780516
      ],
      "type": "VEC2"
    },
    {
      "bufferView": 0,
      "byteOffset": 10816908,
      "componentType": 5125,
      "count": 250551,
      "type": "SCALAR"
    },
    {
      "bufferView": 2,
      "byteOffset": 17300544,
      "componentType": 5126,
      "count": 15091,
      "max": [
        4.796597003936768,
        6.516332149505615,
        15.055253028869629
      ],
      "min": [
        -4.870779037475586,
        -2.1518290042877197,
        6.7097249031066895
      ],
      "type": "VEC3"
    },
    {
      "bufferView": 2,
      "byteOffset": 17481636,
      "componentType": 5126,
      "count": 15091,
      "max": [
        0.9987008571624756,
        0.9999993443489075,
        0.9999960064888
      ],
      "min": [
        -0.9999638795852661,
        -0.9999991059303284,
        -0.9999811053276062
      ],
      "type": "VEC3"
    },
    {
      "bufferView": 1,
      "byteOffset": 5766848,
      "componentType": 5126,
      "count": 15091,
      "max": [
        0.9996700286865234,
        0.4050289988517761
      ],
      "min": [
        0.00024399999529123306,
        0.002213000087067485
      ],
      "type": "VEC2"
    },
    {
      "bufferView": 0,
      "byteOffset": 11819112,
      "componentType": 5125,
      "count": 45312,
      "type": "SCALAR"
    }
  ],
  "asset": {
    "extras": {
      "author": "Metazeon (https://sketchfab.com/Metazeon)",
      "license": "CC-BY-4.0 (http://creativecommons.org/licenses/by/4.0/)",
      "source": "https://sketchfab.com/3d-models/fujifilm-x-t20-3a74c1e1a7b14059ab754d8a450af260",
      "title": "FUJIFILM X-T20"
    },
    "generator": "Sketchfab-16.54.0",
    "version": "2.0"
  },
  "bufferViews": [
    {
      "buffer": 0,
      "byteLength": 12000360,
      "name": "floatBufferViews",
      "target": 34963
    },
    {
      "buffer": 0,
      "byteLength": 5887576,
      "byteOffset": 12000360,
      "byteStride": 8,
      "name": "floatBufferViews",
      "target": 34962
    },
    {
      "buffer": 0,
      "byteLength": 17662728,
      "byteOffset": 17887936,
      "byteStride": 12,
      "name": "floatBufferViews",
      "target": 34962
    }
  ],
  "buffers": [
    {
      "byteLength": 35550664,
      "uri": "scene.bin"
    }
  ],
  "extensionsUsed": [
    "KHR_materials_specular"
  ],
  "images": [
    {
      "uri": "textures/FUJIFILM_X-T20_RC_LOD0_u0_v0_baseColor.png"
    }
  ],
  "materials": [
    {
      "doubleSided": true,
      "extensions": {
        "KHR_materials_specular": {
          "specularColorFactor": [
            1.0,
            1.0,
            1.0
          ],
          "specularFactor": 0.1
        }
      },
      "name": "FUJIFILM_X-T20_RC_LOD0_u0_v0",
      "pbrMetallicRoughness": {
        "baseColorTexture": {
          "index": 0
        },
        "metallicFactor": 0.4,
        "roughnessFactor": 0.9
      }
    }
  ],
  "meshes": [
    {
      "name": "Object_0",
      "primitives": [
        {
          "attributes": {
            "NORMAL": 1,
            "POSITION": 0,
            "TEXCOORD_0": 2
          },
          "indices": 3,
          "material": 0,
          "mode": 4
        }
      ]
    },
    {
      "name": "Object_1",
      "primitives": [
        {
          "attributes": {
            "NORMAL": 5,
            "POSITION": 4,
            "TEXCOORD_0": 6
          },
          "indices": 7,
          "material": 0,
          "mode": 4
        }
      ]
    },
    {
      "name": "Object_2",
      "primitives": [
        {
          "attributes": {
            "NORMAL": 9,
            "POSITION": 8,
            "TEXCOORD_0": 10
          },
          "indices": 11,
          "material": 0,
          "mode": 4
        }
      ]
    },
    {
      "name": "Object_3",
      "primitives": [
        {
          "attributes": {
            "NORMAL": 13,
            "POSITION": 12,
            "TEXCOORD_0": 14
          },
          "indices": 15,
          "material": 0,
          "mode": 4
        }
      ]
    },
    {
      "name": "Object_4",
      "primitives": [
        {
          "attributes": {
            "NORMAL": 17,
            "POSITION": 16,
            "TEXCOORD_0": 18
          },
          "indices": 19,
          "material": 0,
          "mode": 4
        }
      ]
    },
    {
      "name": "Object_5",
      "primitives": [
        {
          "attributes": {
            "NORMAL": 21,
            "POSITION": 20,
            "TEXCOORD_0": 22
          },
          "indices": 23,
          "material": 0,
          "mode": 4
        }
      ]
    },
    {
      "name": "Object_6",
      "primitives": [
        {
          "attributes": {
            "NORMAL": 25,
            "POSITION": 24,
            "TEXCOORD_0": 26
          },
          "indices": 27,
          "material": 0,
          "mode": 4
        }
      ]
    },
    {
      "name": "Object_7",
      "primitives": [
        {
          "attributes": {
            "NORMAL": 29,
            "POSITION": 28,
            "TEXCOORD_0": 30
          },
          "indices": 31,
          "material": 0,
          "mode": 4
        }
      ]
    },
    {
      "name": "Object_8",
      "primitives": [
        {
          "attributes": {
            "NORMAL": 33,
            "POSITION": 32,
            "TEXCOORD_0": 34
          },
          "indices": 35,
          "material": 0,
          "mode": 4
        }
      ]
    },
    {
      "name": "Object_9",
      "primitives": [
        {
          "attributes": {
            "NORMAL": 37,
            "POSITION": 36,
            "TEXCOORD_0": 38
          },
          "indices": 39,
          "material": 0,
          "mode": 4
        }
      ]
    },
    {
      "name": "Object_10",
      "primitives": [
        {
          "attributes": {
            "NORMAL": 41,
            "POSITION": 40,
            "TEXCOORD_0": 42
          },
          "indices": 43,
          "material": 0,
          "mode": 4
        }
      ]
    },
    {
      "name": "Object_11",
      "primitives": [
        {
          "attributes": {
            "NORMAL": 45,
            "POSITION": 44,
            "TEXCOORD_0": 46
          },
          "indices": 47,
          "material": 0,
          "mode": 4
        }
      ]
    }
  ],
  "nodes": [
    {
      "children": [
        1
      ],
      "matrix": [
        -1.0,
        6.290011496532519e-32,
        -2.832769343193999e-16,
        0.0,
        -2.832769343193999e-16,
        -2.220446049250313e-16,
        1.0,
        0.0,
        0.0,
        1.0,
        2.220446049250313e-16,
        0.0,
        0.0,
        0.0,
        0.0,
        1.0
      ],
      "name": "Sketchfab_model"
    },
    {
      "children": [
        2,
        3,
        4,
        5,
        6,
        7,
        8,
        9,
        10,
        11,
        12,
        13
      ],
      "name": "FUJIFILM_X-T20_RC_LOD0.obj.cleaner.materialmerger.gles"
    },
    {
      "mesh": 0,
      "name": "Object_2"
    },
    {
      "mesh": 1,
      "name": "Object_3"
    },
    {
      "mesh": 2,
      "name": "Object_4"
    },
    {
      "mesh": 3,
      "name": "Object_5"
    },
    {
      "mesh": 4,
      "name": "Object_6"
    },
    {
      "mesh": 5,
      "name": "Object_7"
    },
    {
      "mesh": 6,
      "name": "Object_8"
    },
    {
      "mesh": 7,
      "name": "Object_9"
    },
    {
      "mesh": 8,
      "name": "Object_10"
    },
    {
      "mesh": 9,
      "name": "Object_11"
    },
    {
      "mesh": 10,
      "name": "Object_12"
    },
    {
      "mesh": 11,
      "name": "Object_13"
    }
  ],
  "samplers": [
    {
      "magFilter": 9729,
      "minFilter": 9987,
      "wrapS": 10497,
      "wrapT": 10497
    }
  ],
  "scene": 0,
  "scenes": [
    {
      "name": "Sketchfab_Scene",
      "nodes": [
        0
      ]
    }
  ],
  "textures": [
    {
      "sampler": 0,
      "source": 0
    }
  ]
}
