{
  "accessors": [
    {
      "bufferView": 2,
      "componentType": 5126,
      "count": 29045,
      "max": [
        0.04326571896672249,
        0.053016796708106995,
        0.08441267907619476
      ],
      "min": [
        -0.043265726417303085,
        -0.053016796708106995,
        -0.08441267907619476
      ],
      "type": "VEC3"
    },
    {
      "bufferView": 2,
      "byteOffset": 348540,
      "componentType": 5126,
      "count": 29045,
      "max": [
        0.999978244304657,
        0.9999945759773254,
        0.9999971985816956
      ],
      "min": [
        -0.9999993443489075,
        -0.9999976754188538,
        -0.9999998807907104
      ],
      "type": "VEC3"
    },
    {
      "bufferView": 3,
      "componentType": 5126,
      "count": 29045,
      "max": [
        0.9997694492340088,
        0.9999987483024597,
        0.9999768137931824,
        1.0
      ],
      "min": [
        -0.9999749064445496,
        -0.9999997615814209,
        -0.9999752640724182,
        -1.0
      ],
      "type": "VEC4"
    },
    {
      "bufferView": 1,
      "componentType": 5126,
      "count": 29045,
      "max": [
        0.9997649788856506,
        0.997421145439148
      ],
      "min": [
        2.687193227757234e-05,
        8.479119424009696e-05
      ],
      "type": "VEC2"
    },
    {
      "bufferView": 1,
      "byteOffset": 232360,
      "componentType": 5126,
      "count": 29045,
      "max": [
        0.9997649788856506,
        0.997421145439148
      ],
      "min": [
        2.687193227757234e-05,
        8.479119424009696e-05
      ],
      "type": "VEC2"
    },
    {
      "bufferView": 1,
      "byteOffset": 464720,
      "componentType": 5126,
      "count": 29045,
      "max": [
        0.9997649788856506,
        0.997421145439148
      ],
      "min": [
        2.687193227757234e-05,
        8.479119424009696e-05
      ],
      "type": "VEC2"
    },
    {
      "bufferView": 1,
      "byteOffset": 697080,
      "componentType": 5126,
      "count": 29045,
      "max": [
        0.9997649788856506,
        0.997421145439148
      ],
      "min": [
        2.687193227757234e-05,
        8.479119424009696e-05
      ],
      "type": "VEC2"
    },
    {
      "bufferView": 1,
      "byteOffset": 929440,
      "componentType": 5126,
      "count": 29045,
      "max": [
        0.9997649788856506,
        0.997421145439148
      ],
      "min": [
        2.687193227757234e-05,
        8.479119424009696e-05
      ],
      "type": "VEC2"
    },
    {
      "bufferView": 0,
      "componentType": 5125,
      "count": 156372,
      "type": "SCALAR"
    }
  ],
  "asset": {
    "extras": {
      "author": "ghalalholi (https://sketchfab.com/ghalalholi)",
      "license": "CC-BY-4.0 (http://creativecommons.org/licenses/by/4.0/)",
      "source": "https://sketchfab.com/3d-models/vintage-camera-e1c6322c627d45a8b13bad05e7a4782c",
      "title": "Vintage Camera"
    },
    "generator": "Sketchfab-15.31.0",
    "version": "2.0"
  },
  "bufferViews": [
    {
      "buffer": 0,
      "byteLength": 625488,
      "name": "floatBufferViews",
      "target": 34963
    },
    {
      "buffer": 0,
      "byteLength": 1161800,
      "byteOffset": 625488,
      "byteStride": 8,
      "name": "floatBufferViews",
      "target": 34962
    },
    {
      "buffer": 0,
      "byteLength": 697080,
      "byteOffset": 1787288,
      "byteStride": 12,
      "name": "floatBufferViews",
      "target": 34962
    },
    {
      "buffer": 0,
      "byteLength": 464720,
      "byteOffset": 2484368,
      "byteStride": 16,
      "name": "floatBufferViews",
      "target": 34962
    }
  ],
  "buffers": [
    {
      "byteLength": 2949088,
      "uri": "scene.bin"
    }
  ],
  "images": [
    {
      "uri": "textures/material_0_baseColor.jpeg"
    },
    {
      "uri": "textures/material_0_metallicRoughness.png"
    },
    {
      "uri": "textures/material_0_normal.jpeg"
    }
  ],
  "materials": [
    {
      "name": "material_0",
      "normalTexture": {
        "index": 2
      },
      "occlusionTexture": {
        "index": 1
      },
      "pbrMetallicRoughness": {
        "baseColorTexture": {
          "index": 0
        },
        "metallicFactor": 0.0,
        "metallicRoughnessTexture": {
          "index": 1
        }
      }
    }
  ],
  "meshes": [
    {
      "name": "Object_0",
      "primitives": [
        {
          "attributes": {
            "NORMAL": 1,
            "POSITION": 0,
            "TANGENT": 2,
            "TEXCOORD_0": 3,
            "TEXCOORD_1": 4,
            "TEXCOORD_2": 5,
            "TEXCOORD_3": 6,
            "TEXCOORD_4": 7
          },
          "indices": 8,
          "material": 0,
          "mode": 4
        }
      ]
    }
  ],
  "nodes": [
    {
      "children": [
        1
      ],
      "matrix": [
        1.0,
        0.0,
        0.0,
        0.0,
        0.0,
        2.220446049250313e-16,
        -1.0,
        0.0,
        0.0,
        1.0,
        2.220446049250313e-16,
        0.0,
        0.0,
        0.0,
        0.0,
        1.0
      ],
      "name": "Sketchfab_model"
    },
    {
      "children": [
        2
      ],
      "name": "root"
    },
    {
      "children": [
        3
      ],
      "matrix": [
        1.0,
        0.0,
        0.0,
        0.0,
        0.0,
        2.220446049250313e-16,
        1.0,
        0.0,
        0.0,
        -1.0,
        2.220446049250313e-16,
        0.0,
        0.0,
        0.0,
        0.0,
        1.0
      ],
      "name": "GLTF_SceneRootNode"
    },
    {
      "children": [
        4
      ],
      "name": "_0"
    },
    {
      "mesh": 0,
      "name": "Object_4"
    }
  ],
  "samplers": [
    {
      "magFilter": 9729,
      "minFilter": 9987,
      "wrapS": 10497,
      "wrapT": 10497
    }
  ],
  "scene": 0,
  "scenes": [
    {
      "name": "Sketchfab_Scene",
      "nodes": [
        0
      ]
    }
  ],
  "textures": [
    {
      "sampler": 0,
      "source": 0
    },
    {
      "sampler": 0,
      "source": 1
    },
    {
      "sampler": 0,
      "source": 2
    }
  ]
}
